# AST/ASF file generated using VICON BodyLanguage
# -----------------------------------------------
:version 1.10
:name VICON
:units
  mass 1.0
  length 0.45
  angle deg
:documentation
   .ast/.asf automatically generated from VICON data using
   VICON BodyBuilder and BodyLanguage model FoxedUp or BRILLIANT.MOD
:root
   order TX TY TZ RX RY RZ
   axis XYZ
   position 0 0 0  
   orientation 0 0 0 
:bonedata
  begin
     id 1 
     name lhipjoint
     direction 0.521689 -0.742065 0.420928 
     length 2.47002 
     axis 0 0 0  XYZ
  end
  begin
     id 2 
     name lfemur
     direction 0.34202 -0.939693 0  
     length 7.24654  
     axis 0 0 20  XYZ
    dof rx ry rz
    limits (-160.0 20.0)
           (-70.0 70.0)
           (-60.0 70.0)
  end
  begin
     id 3 
     name ltibia
     direction 0.34202 -0.939693 0   
     length 8.04849   
     axis 0 0 20   XYZ
    dof rx
    limits (-10.0 170.0)
  end
  begin
     id 4 
     name lfoot
     direction 0.0745411 -0.2048 0.975961   
     length 1.72367   
     axis -90 7.62852e-016 20   XYZ
    dof rx rz
    limits (-45.0 90.0)
           (-70.0 20.0)
  end
  begin
     id 5 
     name ltoes
     direction 1.53556e-011 -4.21901e-011 1   
     length 0.87311   
     axis -90 7.62852e-016 20   XYZ
    dof rx
    limits (-90.0 20.0)
  end
  begin
     id 6 
     name rhipjoint
     direction -0.52849 -0.738415 0.418857   
     length 2.48223  
     axis 0 0 0  XYZ 
  end
  begin
     id 7 
     name rfemur
     direction -0.34202 -0.939693 0   
     length 7.15571   
     axis 0 0 -20   XYZ
    dof rx ry rz
    limits (-160.0 20.0)
           (-70.0 70.0)
           (-70.0 60.0)
  end
  begin
     id 8 
     name rtibia
     direction -0.34202 -0.939693 0   
     length 7.81659   
     axis 0 0 -20   XYZ
    dof rx
    limits (-10.0 170.0)
 end
 begin
     id 9 
     name rfoot
     direction -0.0917348 -0.252039 0.963359   
     length 1.84382  
     axis -90 -7.62852e-016 -20   XYZ
    dof rx rz
    limits (-45.0 90.0)
           (-20.0 70.0)
  end
  begin
     id 10 
     name rtoes
     direction -1.53551e-011 -4.21879e-011 1   
     length 0.927771   
     axis -90 -7.62852e-016 -20   XYZ
    dof rx
    limits (-90.0 20.0)
  end
  begin
     id 11 
     name lowerback
     direction 0.00583058 0.999822 0.0179296   
     length 2.1429   
     axis 0 0 0   XYZ
    dof rx ry rz
    limits (-20.0 45.0)
           (-30.0 30.0)
           (-30.0 30.0)
  end
  begin
     id 12 
     name upperback
     direction -0.0137999 0.999752 -0.0175071   
     length 2.14252   
     axis 0 0 0   XYZ
    dof rx ry rz
    limits (-20.0 45.0)
           (-30.0 30.0)
           (-30.0 30.0)
  end
  begin
     id 13 
     name thorax
     direction -0.0158036 0.99955 -0.0254909   
     length 2.1383   
     axis 0 0 0   XYZ
    dof rx ry rz
    limits (-20.0 45.0)
           (-30.0 30.0)
           (-30.0 30.0)
  end
  begin
     id 14 
     name lowerneck
     direction -0.0101179 0.999403 -0.0330262   
     length 1.65808   
     axis 0 0 0   XYZ
    dof rx ry rz
    limits (-20.0 45.0)
           (-30.0 30.0)
           (-30.0 30.0)
  end
  begin
     id 15 
     name upperneck
     direction 0.0497734 0.995978 -0.074501   
     length 1.5897   
     axis 0 0 0   XYZ
    dof rx ry rz
    limits (-20.0 45.0)
           (-30.0 30.0)
           (-30.0 30.0)
  end
  begin
     id 16
     name head
     direction 0.0189524 0.999519 -0.0245438  
     length 1.74024  
     axis 0 0 0   XYZ
    dof rx ry rz
    limits (-20.0 45.0)
           (-30.0 30.0)
           (-30.0 30.0)
  end
  begin
     id 17 
     name lclavicle
     direction 0.945604 0.324422 0.0241537  
     length 3.59089  
     axis 0 0 0   XYZ
    dof ry rz
    limits (-20.0 10.0)
           (0.0 20.0)
  end
  begin
     id 18 
     name lhumerus
     direction 1 -4.48964e-011 -2.63524e-027   
     length 5.2391   
     axis 180 -30 -90   XYZ
    dof rx ry rz
    limits (-60.0 90.0)
           (-90.0 90.0)
           (-90.0 90.0)
  end
  begin
     id 19
     name lradius
     direction 1 -4.48969e-011 3.86978e-028   
     length 3.31467   
     axis 180 -30 -90   XYZ
    dof rx
    limits (-10.0 170.0)
  end
  begin
     id 20
     name lwrist
     direction 1 -4.48963e-011 7.20928e-028   
     length 1.65734   
     axis -5.52449e-016 90 90   XYZ
    dof ry
    limits (-180.0 0.0)
 end
  begin
     id 21 
     name lhand
     direction 1 -4.48964e-011 1.44186e-027   
     length 0.9659   
     axis -9.20027e-016 90 90   XYZ
    dof rx rz
    limits (-90.0 90.0)
           (-45.0 45.0)
  end
  begin
     id 22 
     name lfingers
     direction 1 -4.48965e-011 2.88371e-027   
     length 0.778733   
     axis -1.84005e-015 90 90   XYZ
    dof rx
    limits (0.0 90.0)
  end
  begin
     id 23
     name lthumb
     direction 0.707107 -6.34931e-011 0.707107   
     length 1.11811   
     axis -90 45 2.85299e-015   XYZ
    dof rx rz
    limits (-45.0 45.0)
           (-45.0 45.0)
  end
  begin
     id 24 
     name rclavicle
     direction -0.923762 0.370785 0.0958234   
     length 3.54196  
     axis 0 0 0   XYZ 
    dof ry rz
    limits (-10.0 20.0)
           (-20.0 0.0)
  end
  begin
     id 25 
     name rhumerus
     direction -1 -4.48966e-011 1.18702e-017  
     length 5.30252   
     axis 180 30 90   XYZ
    dof rx ry rz
    limits (-90.0 60.0)
           (-90.0 90.0)
           (-90.0 90.0)
  end
  begin
     id 26 
     name rradius
     direction -1 -4.48966e-011 4.46736e-027   
     length 3.67875   
     axis 180 30 90   XYZ
    dof rx
    limits (-10.0 170.0)
  end
  begin
     id 27 
     name rwrist
     direction -1 -4.48966e-011 7.20928e-028   
     length 1.83937   
     axis -5.52449e-016 -90 -90   XYZ
    dof ry
    limits (-180.0 0.0)
  end
  begin
     id 28
     name rhand
     direction -1 -4.48973e-011 1.44186e-027   
     length 0.594811   
     axis -9.20027e-016 -90 -90   XYZ
    dof rx rz
    limits (-90.0 90.0)
           (-45.0 45.0)
  end
  begin
     id 29
     name rfingers
     direction -1 -4.48963e-011 2.88371e-027   
     length 0.479552   
     axis -1.84005e-015 -90 -90   XYZ
    dof rx
    limits (0.0 90.0)
  end
  begin
     id 30
     name rthumb
     direction -0.707107 -6.34932e-011 0.707107   
     length 0.688544   
     axis -90 -45 -2.85299e-015   XYZ
    dof rx rz
    limits (-45.0 45.0)
           (-45.0 45.0)
  end
:hierarchy
  begin
    root lhipjoint rhipjoint lowerback
    lhipjoint lfemur
    lfemur ltibia
    ltibia lfoot
    lfoot ltoes
    rhipjoint rfemur
    rfemur rtibia
    rtibia rfoot
    rfoot rtoes
    lowerback upperback
    upperback thorax
    thorax lowerneck lclavicle rclavicle
    lowerneck upperneck
    upperneck head
    lclavicle lhumerus
    lhumerus lradius
    lradius lwrist
    lwrist lhand lthumb
    lhand lfingers
    rclavicle rhumerus
    rhumerus rradius
    rradius rwrist
    rwrist rhand rthumb
    rhand rfingers
  end

#!OML:ASF E:\acrobat2\Project_11_07_03\Capture day 1\Session 1\Acrobat.ASF
:FULLY-SPECIFIED
:DEGREES
196
root 8.27172 18.1869 -31.6258 3.9189 25.7886 -0.715163
lowerback -5.85057 0.325304 -0.228518
upperback -3.08902 0.468694 -0.859498
thorax 0.108419 0.238627 -0.726542
lowerneck 0.984372 -4.24896 -1.26579
upperneck 3.28318 -5.79408 4.74461
head 1.04142 -2.86217 1.64689
rclavicle 1.28713e-014 5.56597e-015
rhumerus -38.6604 0.389487 -86.6596
rradius 26.5396
rwrist 1.90506
rhand -6.23444 -41.1373
rfingers 7.12502
rthumb 19.607 -70.1685
lclavicle 1.28713e-014 5.56597e-015
lhumerus -32.5281 -13.6654 90.5866
lradius 19.7009
lwrist 10.8445
lhand -12.1785 -11.5655
lfingers 7.12502
lthumb 13.885 17.9509
rfemur -0.915289 7.10882 14.2363
rtibia -0.63568
rfoot -29.0208 -34.3786
rtoes 24.2221
lfemur 3.37928 -0.480747 -15.816
ltibia 2.95617
lfoot -19.9351 2.33057
ltoes 30.7964
197
root 8.27145 18.1859 -31.6264 3.91674 25.7578 -0.746463
lowerback -5.94226 0.321993 -0.231517
upperback -3.03721 0.465019 -0.831058
thorax 0.212313 0.237002 -0.695107
lowerneck 0.936692 -4.27553 -1.34273
upperneck 3.2732 -5.83108 4.79751
head 1.05217 -2.8806 1.67571
rclavicle -4.22417e-016 -3.57812e-015
rhumerus -38.5987 0.487679 -86.7357
rradius 26.5248
rwrist 1.83388
rhand -6.0387 -41.0316
rfingers 7.12502
rthumb 19.7952 -70.0436
lclavicle -4.22417e-016 -3.57812e-015
lhumerus -32.5021 -13.6574 90.6522
lradius 19.7013
lwrist 10.7658
lhand -12.3614 -11.1964
lfingers 7.12502
lthumb 13.7087 18.332
rfemur -0.92437 7.0356 14.2576
rtibia -0.669369
rfoot -28.8393 -34.3752
rtoes 24.0867
lfemur 3.35735 -0.483057 -15.7896
ltibia 2.98087
lfoot -19.9449 2.30427
ltoes 30.9642
198
root 8.27029 18.1856 -31.6272 3.90684 25.754 -0.759536
lowerback -6.20181 0.303954 -0.312651
upperback -2.85157 0.447167 -0.765371
thorax 0.545938 0.228995 -0.581001
lowerneck 0.81798 -4.21163 -1.36481
upperneck 3.26639 -5.74605 4.81778
head 1.06885 -2.83673 1.68444
rclavicle -3.57812e-015 7.95139e-016
rhumerus -38.3084 0.633203 -86.7684
rradius 26.4871
rwrist 1.67056
rhand -5.76026 -41.3746
rfingers 7.12502
rthumb 20.0628 -70.3587
lclavicle -3.57812e-015 7.95139e-016
lhumerus -32.2413 -13.5697 90.6805
lradius 19.6354
lwrist 10.7767
lhand -12.366 -10.9829
lfingers 7.12502
lthumb 13.7042 18.5459
rfemur -0.910747 7.08373 14.2784
rtibia -0.699738
rfoot -28.8406 -34.4642
rtoes 24.0059
lfemur 3.32716 -0.440491 -15.7621
ltibia 3.05823
lfoot -19.9317 2.32796
ltoes 30.6288
199
root 8.26963 18.1851 -31.6281 3.90673 25.7643 -0.775092
lowerback -5.87115 0.296137 -0.149316
upperback -3.07702 0.426216 -0.882939
thorax 0.132429 0.216353 -0.79736
lowerneck 0.945897 -4.26723 -1.20382
upperneck 3.30042 -5.81883 4.73257
head 1.0517 -2.87318 1.63109
rclavicle 2.64384e-014 -1.27222e-014
rhumerus -38.661 0.541274 -86.9941
rradius 26.4778
rwrist 1.73186
rhand -5.4321 -41.8774
rfingers 7.12502
rthumb 20.3782 -70.8282
lclavicle 2.64384e-014 -1.27222e-014
lhumerus -32.5812 -13.5081 90.5389
lradius 19.5647
lwrist 10.7516
lhand -12.2989 -11.0888
lfingers 7.12502
lthumb 13.769 18.4356
rfemur -0.913521 7.15836 14.3061
rtibia -0.715995
rfoot -28.852 -34.5531
rtoes 23.6988
lfemur 3.2924 -0.433604 -15.7412
ltibia 3.11778
lfoot -19.96 2.40427
ltoes 30.1321
200
root 8.26933 18.1855 -31.629 3.86158 25.7884 -0.845256
lowerback -6.32655 0.268183 -0.277281
upperback -2.74928 0.398085 -0.714231
thorax 0.719831 0.204262 -0.550582
lowerneck 0.742087 -4.20507 -1.3557
upperneck 3.22251 -5.73456 4.77609
head 1.06577 -2.83099 1.66838
rclavicle 4.20678e-014 -7.95139e-016
rhumerus -38.2173 0.765818 -86.8974
rradius 26.3758
rwrist 1.78961
rhand -5.28835 -41.9539
rfingers 7.12502
rthumb 20.5163 -70.8899
lclavicle 4.20678e-014 -7.95139e-016
lhumerus -32.029 -13.2146 90.5777
lradius 19.336
lwrist 10.6419
lhand -12.2417 -11.5534
lfingers 7.12502
lthumb 13.8241 17.9672
rfemur -0.897231 7.16016 14.3938
rtibia -0.715862
rfoot -28.7798 -34.5993
rtoes 23.3887
lfemur 3.28612 -0.497624 -15.6775
ltibia 3.15594
lfoot -19.9846 2.44189
ltoes 30.0866
201
root 8.26858 18.1858 -31.6316 3.8065 25.7868 -0.91986
lowerback -5.67175 0.292651 0.0967231
upperback -3.1612 0.408398 -0.932596
thorax -0.0631339 0.203881 -0.988789
lowerneck 0.904915 -4.2877 -1.2731
upperneck 3.5228 -5.85987 4.89402
head 1.13846 -2.88902 1.69143
rclavicle -1.61016e-014 -4.77083e-015
rhumerus -38.9043 0.5311 -87.2439
rradius 26.318
rwrist 1.98627
rhand -5.54037 -41.5508
rfingers 7.12502
rthumb 20.2742 -70.5126
lclavicle -1.61016e-014 -4.77083e-015
lhumerus -32.8345 -13.6883 90.5733
lradius 19.4805
lwrist 10.9748
lhand -12.3043 -11.6993
lfingers 7.12502
lthumb 13.7637 17.8255
rfemur -0.917495 7.07636 14.4665
rtibia -0.642474
rfoot -28.7764 -34.4801
rtoes 23.6969
lfemur 3.28179 -0.541781 -15.6147
ltibia 3.19592
lfoot -19.987 2.4796
ltoes 30.1312
202
root 8.26768 18.1847 -31.6343 3.79764 25.7213 -0.930632
lowerback -6.32987 0.291135 -0.280648
upperback -2.69384 0.427594 -0.627786
thorax 0.778239 0.219239 -0.457685
lowerneck 0.76986 -4.33632 -1.58105
upperneck 3.09509 -5.90747 4.84463
head 1.03705 -2.92151 1.72897
rclavicle -1.78161e-014 -2.78299e-015
rhumerus -38.1946 0.77141 -86.8894
rradius 26.2126
rwrist 1.86074
rhand -5.62684 -41.5182
rfingers 7.12502
rthumb 20.191 -70.4888
lclavicle -1.78161e-014 -2.78299e-015
lhumerus -32.1732 -13.5465 90.9023
lradius 19.4174
lwrist 10.8961
lhand -12.4526 -11.601
lfingers 7.12502
lthumb 13.6208 17.9334
rfemur -0.997985 6.88705 14.4473
rtibia -0.537802
rfoot -28.5204 -34.3167
rtoes 23.7976
lfemur 3.28108 -0.514839 -15.618
ltibia 3.17928
lfoot -19.9681 2.60228
ltoes 29.8162
203
root 8.26719 18.1831 -31.6359 3.80677 25.6838 -0.876764
lowerback -5.79769 0.31223 -0.0580002
upperback -3.03354 0.442161 -0.855374
thorax 0.137025 0.223366 -0.819594
lowerneck 0.881974 -4.34225 -1.51662
upperneck 3.38419 -5.93208 5.03637
head 1.1149 -2.92843 1.77907
rclavicle 1.44119e-015 9.93923e-015
rhumerus -38.7403 0.406538 -87.1144
rradius 26.2741
rwrist 1.94675
rhand -5.56073 -41.8946
rfingers 7.12502
rthumb 20.2546 -70.8585
lclavicle 1.44119e-015 9.93923e-015
lhumerus -32.902 -13.9586 90.8776
lradius 19.6167
lwrist 10.9577
lhand -12.4577 -11.6906
lfingers 7.12502
lthumb 13.6159 17.8441
rfemur -1.00906 6.75844 14.3737
rtibia -0.537615
rfoot -28.1624 -34.3709
rtoes 23.1866
lfemur 3.29828 -0.507761 -15.6851
ltibia 3.18033
lfoot -20.026 2.57583
ltoes 29.9306
